<mxfile host="app.diagrams.net" modified="2023-12-28T12:57:22.066Z" agent="Mozilla/5.0 (Windows NT 10.0; Win64; x64) AppleWebKit/537.36 (KHTML, like Gecko) Chrome/120.0.0.0 Safari/537.36 Edg/120.0.0.0" etag="YNSqsBGuUWtcSBKhan9e" version="22.1.15" type="github">
  <diagram name="第 1 页" id="M6N7W5tKmuZOvXgAG-wH">
    <mxGraphModel dx="1426" dy="-1587" grid="1" gridSize="10" guides="1" tooltips="1" connect="1" arrows="1" fold="1" page="1" pageScale="1" pageWidth="827" pageHeight="1169" math="0" shadow="0">
      <root>
        <mxCell id="0" />
        <mxCell id="1" parent="0" />
        <mxCell id="GJ2FUBno_ALOqsxxdN6I-27" value="3:查詢" style="whiteSpace=wrap;html=1;aspect=fixed;" vertex="1" parent="1">
          <mxGeometry x="312.5" y="2545" width="80" height="80" as="geometry" />
        </mxCell>
        <mxCell id="GJ2FUBno_ALOqsxxdN6I-28" value="3:更新" style="whiteSpace=wrap;html=1;aspect=fixed;" vertex="1" parent="1">
          <mxGeometry x="312.5" y="2745" width="80" height="80" as="geometry" />
        </mxCell>
        <mxCell id="GJ2FUBno_ALOqsxxdN6I-29" value="&amp;nbsp; &amp;nbsp;進貨清單" style="strokeWidth=2;html=1;shape=mxgraph.flowchart.annotation_1;align=left;pointerEvents=1;" vertex="1" parent="1">
          <mxGeometry x="267.5" y="2670" width="75" height="30" as="geometry" />
        </mxCell>
        <mxCell id="GJ2FUBno_ALOqsxxdN6I-30" value="" style="endArrow=classic;html=1;rounded=0;exitX=1;exitY=0.5;exitDx=0;exitDy=0;" edge="1" parent="1" source="GJ2FUBno_ALOqsxxdN6I-27">
          <mxGeometry width="50" height="50" relative="1" as="geometry">
            <mxPoint x="472.5" y="2610" as="sourcePoint" />
            <mxPoint x="462.5" y="2585" as="targetPoint" />
          </mxGeometry>
        </mxCell>
        <mxCell id="GJ2FUBno_ALOqsxxdN6I-31" value="" style="endArrow=classic;html=1;rounded=0;exitX=0;exitY=0.5;exitDx=0;exitDy=0;" edge="1" parent="1" source="GJ2FUBno_ALOqsxxdN6I-27">
          <mxGeometry width="50" height="50" relative="1" as="geometry">
            <mxPoint x="402.5" y="2595" as="sourcePoint" />
            <mxPoint x="242.5" y="2585" as="targetPoint" />
          </mxGeometry>
        </mxCell>
        <mxCell id="GJ2FUBno_ALOqsxxdN6I-32" value="" style="endArrow=classic;html=1;rounded=0;exitX=0.5;exitY=0;exitDx=0;exitDy=0;exitPerimeter=0;entryX=0.25;entryY=1;entryDx=0;entryDy=0;" edge="1" parent="1" source="GJ2FUBno_ALOqsxxdN6I-29" target="GJ2FUBno_ALOqsxxdN6I-27">
          <mxGeometry width="50" height="50" relative="1" as="geometry">
            <mxPoint x="322.5" y="2655" as="sourcePoint" />
            <mxPoint x="372.5" y="2605" as="targetPoint" />
          </mxGeometry>
        </mxCell>
        <mxCell id="GJ2FUBno_ALOqsxxdN6I-33" value="" style="endArrow=classic;html=1;rounded=0;exitX=0.25;exitY=0;exitDx=0;exitDy=0;entryX=0.5;entryY=1;entryDx=0;entryDy=0;entryPerimeter=0;" edge="1" parent="1" source="GJ2FUBno_ALOqsxxdN6I-28" target="GJ2FUBno_ALOqsxxdN6I-29">
          <mxGeometry width="50" height="50" relative="1" as="geometry">
            <mxPoint x="352.21000000000004" y="2745" as="sourcePoint" />
            <mxPoint x="352.21000000000004" y="2700" as="targetPoint" />
          </mxGeometry>
        </mxCell>
        <mxCell id="GJ2FUBno_ALOqsxxdN6I-34" value="" style="endArrow=classic;html=1;rounded=0;entryX=0;entryY=0.5;entryDx=0;entryDy=0;" edge="1" parent="1" target="GJ2FUBno_ALOqsxxdN6I-28">
          <mxGeometry width="50" height="50" relative="1" as="geometry">
            <mxPoint x="242.5" y="2785" as="sourcePoint" />
            <mxPoint x="207.5" y="2845" as="targetPoint" />
          </mxGeometry>
        </mxCell>
        <mxCell id="GJ2FUBno_ALOqsxxdN6I-35" value="" style="endArrow=classic;html=1;rounded=0;entryX=1;entryY=0.5;entryDx=0;entryDy=0;" edge="1" parent="1" target="GJ2FUBno_ALOqsxxdN6I-28">
          <mxGeometry width="50" height="50" relative="1" as="geometry">
            <mxPoint x="462.5" y="2785" as="sourcePoint" />
            <mxPoint x="322.5" y="2795" as="targetPoint" />
          </mxGeometry>
        </mxCell>
        <mxCell id="GJ2FUBno_ALOqsxxdN6I-36" value="&lt;font style=&quot;font-size: 9px;&quot;&gt;庫存訊息清單&lt;br&gt;&lt;/font&gt;" style="text;html=1;strokeColor=none;fillColor=default;align=center;verticalAlign=middle;whiteSpace=wrap;rounded=0;fontSize=9;" vertex="1" parent="1">
          <mxGeometry x="240" y="2585" width="65" height="10" as="geometry" />
        </mxCell>
        <mxCell id="GJ2FUBno_ALOqsxxdN6I-37" value="進貨訊息請求" style="text;html=1;strokeColor=none;fillColor=default;align=center;verticalAlign=middle;whiteSpace=wrap;rounded=0;fontSize=9;" vertex="1" parent="1">
          <mxGeometry x="395" y="2585" width="60" height="10" as="geometry" />
        </mxCell>
        <mxCell id="GJ2FUBno_ALOqsxxdN6I-38" value="&lt;font style=&quot;font-size: 9px;&quot;&gt;進貨訊息請求&lt;/font&gt;" style="text;html=1;strokeColor=none;fillColor=default;align=center;verticalAlign=middle;whiteSpace=wrap;rounded=0;fontSize=9;" vertex="1" parent="1">
          <mxGeometry x="237.5" y="2785" width="60" height="10" as="geometry" />
        </mxCell>
        <mxCell id="GJ2FUBno_ALOqsxxdN6I-39" value="&lt;font style=&quot;font-size: 9px;&quot;&gt;進貨單&lt;/font&gt;" style="text;html=1;strokeColor=none;fillColor=default;align=center;verticalAlign=middle;whiteSpace=wrap;rounded=0;fontSize=9;" vertex="1" parent="1">
          <mxGeometry x="412.5" y="2785" width="37.5" height="10" as="geometry" />
        </mxCell>
        <mxCell id="GJ2FUBno_ALOqsxxdN6I-40" value="&amp;nbsp; &amp;nbsp;採購清單" style="strokeWidth=2;html=1;shape=mxgraph.flowchart.annotation_1;align=left;pointerEvents=1;flipH=1;" vertex="1" parent="1">
          <mxGeometry x="362.5" y="2670" width="75" height="30" as="geometry" />
        </mxCell>
        <mxCell id="GJ2FUBno_ALOqsxxdN6I-41" value="" style="endArrow=classic;html=1;rounded=0;exitX=0.5;exitY=0;exitDx=0;exitDy=0;exitPerimeter=0;entryX=0.75;entryY=1;entryDx=0;entryDy=0;" edge="1" parent="1" source="GJ2FUBno_ALOqsxxdN6I-40" target="GJ2FUBno_ALOqsxxdN6I-27">
          <mxGeometry width="50" height="50" relative="1" as="geometry">
            <mxPoint x="315" y="2680" as="sourcePoint" />
            <mxPoint x="343" y="2635" as="targetPoint" />
          </mxGeometry>
        </mxCell>
        <mxCell id="GJ2FUBno_ALOqsxxdN6I-42" value="" style="endArrow=classic;html=1;rounded=0;exitX=0.75;exitY=0;exitDx=0;exitDy=0;entryX=0.5;entryY=1;entryDx=0;entryDy=0;entryPerimeter=0;" edge="1" parent="1" source="GJ2FUBno_ALOqsxxdN6I-28" target="GJ2FUBno_ALOqsxxdN6I-40">
          <mxGeometry width="50" height="50" relative="1" as="geometry">
            <mxPoint x="325" y="2690" as="sourcePoint" />
            <mxPoint x="353" y="2645" as="targetPoint" />
          </mxGeometry>
        </mxCell>
        <mxCell id="GJ2FUBno_ALOqsxxdN6I-43" value="" style="endArrow=classic;html=1;rounded=0;exitX=0;exitY=0.25;exitDx=0;exitDy=0;entryX=0;entryY=0.75;entryDx=0;entryDy=0;edgeStyle=orthogonalEdgeStyle;curved=1;" edge="1" parent="1" source="GJ2FUBno_ALOqsxxdN6I-28" target="GJ2FUBno_ALOqsxxdN6I-27">
          <mxGeometry width="50" height="50" relative="1" as="geometry">
            <mxPoint x="343" y="2755" as="sourcePoint" />
            <mxPoint x="315" y="2710" as="targetPoint" />
            <Array as="points">
              <mxPoint x="220" y="2765" />
              <mxPoint x="220" y="2605" />
            </Array>
          </mxGeometry>
        </mxCell>
        <mxCell id="GJ2FUBno_ALOqsxxdN6I-44" value="" style="endArrow=classic;html=1;rounded=0;exitX=1;exitY=0.75;exitDx=0;exitDy=0;entryX=1;entryY=0.25;entryDx=0;entryDy=0;edgeStyle=orthogonalEdgeStyle;curved=1;" edge="1" parent="1" source="GJ2FUBno_ALOqsxxdN6I-27" target="GJ2FUBno_ALOqsxxdN6I-28">
          <mxGeometry width="50" height="50" relative="1" as="geometry">
            <mxPoint x="353" y="2765" as="sourcePoint" />
            <mxPoint x="325" y="2720" as="targetPoint" />
            <Array as="points">
              <mxPoint x="480" y="2605" />
              <mxPoint x="480" y="2765" />
            </Array>
          </mxGeometry>
        </mxCell>
        <mxCell id="GJ2FUBno_ALOqsxxdN6I-45" value="" style="endArrow=classic;html=1;rounded=0;exitX=1;exitY=0.25;exitDx=0;exitDy=0;" edge="1" parent="1" source="GJ2FUBno_ALOqsxxdN6I-27">
          <mxGeometry width="50" height="50" relative="1" as="geometry">
            <mxPoint x="459" y="2530" as="sourcePoint" />
            <mxPoint x="460" y="2565" as="targetPoint" />
          </mxGeometry>
        </mxCell>
        <mxCell id="GJ2FUBno_ALOqsxxdN6I-46" value="" style="endArrow=classic;html=1;rounded=0;exitX=1;exitY=0;exitDx=0;exitDy=0;" edge="1" parent="1" source="GJ2FUBno_ALOqsxxdN6I-27">
          <mxGeometry width="50" height="50" relative="1" as="geometry">
            <mxPoint x="403" y="2575" as="sourcePoint" />
            <mxPoint x="460" y="2545" as="targetPoint" />
          </mxGeometry>
        </mxCell>
        <mxCell id="GJ2FUBno_ALOqsxxdN6I-47" value="" style="endArrow=classic;html=1;rounded=0;entryX=0;entryY=0.25;entryDx=0;entryDy=0;" edge="1" parent="1" target="GJ2FUBno_ALOqsxxdN6I-27">
          <mxGeometry width="50" height="50" relative="1" as="geometry">
            <mxPoint x="240" y="2565" as="sourcePoint" />
            <mxPoint x="480" y="2585" as="targetPoint" />
          </mxGeometry>
        </mxCell>
        <mxCell id="GJ2FUBno_ALOqsxxdN6I-48" value="" style="endArrow=classic;html=1;rounded=0;exitX=0.75;exitY=0;exitDx=0;exitDy=0;" edge="1" parent="1" source="GJ2FUBno_ALOqsxxdN6I-27">
          <mxGeometry width="50" height="50" relative="1" as="geometry">
            <mxPoint x="403" y="2555" as="sourcePoint" />
            <mxPoint x="373" y="2500" as="targetPoint" />
          </mxGeometry>
        </mxCell>
        <mxCell id="GJ2FUBno_ALOqsxxdN6I-49" value="" style="endArrow=classic;html=1;rounded=0;exitX=0.25;exitY=0;exitDx=0;exitDy=0;" edge="1" parent="1" source="GJ2FUBno_ALOqsxxdN6I-27">
          <mxGeometry width="50" height="50" relative="1" as="geometry">
            <mxPoint x="383" y="2555" as="sourcePoint" />
            <mxPoint x="333" y="2500" as="targetPoint" />
          </mxGeometry>
        </mxCell>
        <mxCell id="GJ2FUBno_ALOqsxxdN6I-50" value="&lt;font style=&quot;font-size: 9px;&quot;&gt;採購單&lt;br&gt;&lt;/font&gt;" style="text;html=1;strokeColor=none;fillColor=default;align=center;verticalAlign=middle;whiteSpace=wrap;rounded=0;fontSize=9;" vertex="1" parent="1">
          <mxGeometry x="400" y="2560" width="37.5" height="10" as="geometry" />
        </mxCell>
        <mxCell id="GJ2FUBno_ALOqsxxdN6I-51" value="進貨訊息清單" style="text;html=1;strokeColor=none;fillColor=default;align=center;verticalAlign=middle;whiteSpace=wrap;rounded=0;fontSize=9;" vertex="1" parent="1">
          <mxGeometry x="392.5" y="2535" width="60" height="10" as="geometry" />
        </mxCell>
        <mxCell id="GJ2FUBno_ALOqsxxdN6I-52" value="已進貨清單" style="text;html=1;strokeColor=none;fillColor=default;align=center;verticalAlign=middle;whiteSpace=wrap;rounded=0;fontSize=9;" vertex="1" parent="1">
          <mxGeometry x="290" y="2520" width="60" height="10" as="geometry" />
        </mxCell>
        <mxCell id="GJ2FUBno_ALOqsxxdN6I-53" value="新供貨商訊息" style="text;html=1;strokeColor=none;fillColor=default;align=center;verticalAlign=middle;whiteSpace=wrap;rounded=0;fontSize=9;" vertex="1" parent="1">
          <mxGeometry x="355" y="2520" width="60" height="10" as="geometry" />
        </mxCell>
        <mxCell id="GJ2FUBno_ALOqsxxdN6I-54" value="進貨訊息查詢" style="text;html=1;strokeColor=none;fillColor=default;align=center;verticalAlign=middle;whiteSpace=wrap;rounded=0;fontSize=9;" vertex="1" parent="1">
          <mxGeometry x="242.5" y="2550" width="60" height="10" as="geometry" />
        </mxCell>
        <mxCell id="GJ2FUBno_ALOqsxxdN6I-55" value="&lt;font style=&quot;font-size: 9px;&quot;&gt;發出進貨/採購清單查詢&lt;/font&gt;" style="text;html=1;strokeColor=none;fillColor=default;align=center;verticalAlign=middle;whiteSpace=wrap;rounded=0;fontSize=9;" vertex="1" parent="1">
          <mxGeometry x="180" y="2680" width="62.5" height="10" as="geometry" />
        </mxCell>
        <mxCell id="GJ2FUBno_ALOqsxxdN6I-56" value="&lt;font style=&quot;font-size: 9px;&quot;&gt;進貨/採購清單查詢結果&lt;/font&gt;" style="text;html=1;strokeColor=none;fillColor=default;align=center;verticalAlign=middle;whiteSpace=wrap;rounded=0;fontSize=9;" vertex="1" parent="1">
          <mxGeometry x="466.25" y="2685" width="62.5" height="10" as="geometry" />
        </mxCell>
      </root>
    </mxGraphModel>
  </diagram>
</mxfile>
